<svg width="300" height="163.89" viewBox="0 0 1730 946" fill="none"
    xmlns="http://www.w3.org/2000/svg">
    <path
        d="M290.274 405.857C222.221 442.107 203.908 466.355 187.657 541.728C151.407 473.675 127.16 455.362 51.786 439.112C119.839 402.862 138.152 378.615 154.402 303.241C190.653 371.294 214.901 389.607 290.274 405.857Z"
        fill="white" />
    <path
        d="M83.781 254.007C59.986 266.682 53.583 275.16 47.901 301.514C35.226 277.719 26.748 271.316 0.394043 265.634C24.189 252.959 30.592 244.481 36.274 218.127C48.949 241.922 57.427 248.325 83.781 254.007Z"
        fill="white" />
    <path
        d="M229.377 155.073C202.013 169.649 194.649 179.399 188.115 209.706C173.539 182.342 163.789 174.979 133.482 168.444C160.846 153.868 168.209 144.118 174.744 113.811C189.32 141.175 199.07 148.538 229.377 155.073Z"
        fill="white" />
    <path
        d="M1489.86 535.941C1565.31 520.012 1589.63 501.803 1626.17 433.906C1642.1 509.348 1660.31 533.674 1728.21 570.214C1652.77 586.143 1628.44 604.352 1591.9 672.249C1575.97 596.807 1557.76 572.482 1489.86 535.941Z"
        fill="white" />
    <path
        d="M1646.07 739.156C1672.45 733.587 1680.96 727.22 1693.73 703.479C1699.3 729.857 1705.67 738.363 1729.41 751.139C1703.03 756.708 1694.53 763.075 1681.75 786.816C1676.18 760.438 1669.81 751.933 1646.07 739.156Z"
        fill="white" />
    <path
        d="M1478.73 793.773C1509.07 787.368 1518.85 780.046 1533.54 752.745C1539.95 783.08 1547.27 792.861 1574.57 807.554C1544.23 813.959 1534.45 821.281 1519.76 848.582C1513.35 818.248 1506.03 808.466 1478.73 793.773Z"
        fill="white" />
    <path
        d="M375.933 368.015C365.198 322.417 365.316 226.161 354.581 180.563C530.078 156.812 706.693 141.325 883.646 134.171C884.669 117.939 885.693 101.707 886.716 85.476C1050.1 91.502 1213.48 97.527 1376.86 103.553C1390.13 104.042 1406.08 106.228 1411.54 118.329C1414.48 124.824 1413.32 132.328 1412.44 139.402C1402.16 222.688 1414.26 306.85 1411.43 389.37"
        fill="#5C61E6" fill-opacity="0.819608" />
    <path d="M1353.97 520.476L450.76 538.443L439.183 206.043L1347.25 183.015L1353.97 520.476Z"
        fill="#E6E9ED" />
    <path
        d="M1354.13 528.78L450.923 546.747C446.381 546.837 442.611 543.268 442.454 538.728L430.882 206.332C430.805 204.123 431.617 201.963 433.135 200.344C434.658 198.736 436.761 197.795 438.976 197.739L1347.04 174.71C1349.15 174.49 1351.39 175.468 1352.99 177.013C1354.59 178.536 1355.51 180.64 1355.56 182.85L1362.27 520.309C1362.36 524.894 1358.72 528.688 1354.13 528.78ZM458.777 529.971L1345.49 512.332L1339.11 191.53L447.784 214.137L458.777 529.971Z"
        fill="#841918" />
    <path d="M1382.01 573.887L478.806 591.854L467.229 259.453L1375.3 236.425L1382.01 573.887Z"
        fill="white" />
    <path
        d="M1382.18 582.189L478.969 600.156C474.427 600.246 470.657 596.678 470.5 592.137L458.928 259.741C458.851 257.532 459.663 255.372 461.181 253.753C462.704 252.145 464.807 251.204 467.022 251.148L1375.09 228.119C1375.11 228.119 1375.12 228.119 1375.13 228.118C1377.32 228.074 1379.45 228.899 1381.04 230.422C1382.64 231.945 1383.56 234.049 1383.6 236.259L1390.32 573.717C1390.41 578.304 1386.76 582.098 1382.18 582.189ZM486.823 583.381L1373.54 565.742L1367.16 244.94L475.83 267.548L486.823 583.381Z"
        fill="#841918" />
    <path
        d="M1422.8 389.143C1424.68 327.106 1418.74 265.187 1419.7 203.158C1419.93 188.295 1420.56 173.438 1421.81 158.624C1422.86 146.15 1426.92 131.55 1423.75 119.095C1418.29 97.641 1395.73 93.134 1376.64 92.183C1348.72 90.791 1320.74 90.121 1292.8 89.091C1180.09 84.934 1067.38 80.777 954.663 76.62C941.47 76.133 928.185 75.142 914.981 75.156C901.629 75.171 889.454 80.116 881.342 91.057C872.147 103.458 873.202 119.69 872.274 134.398C875.989 130.532 879.704 126.666 883.419 122.801C779.461 127.056 675.628 134.083 572.058 144.024C520.742 148.95 469.493 154.575 418.332 160.906C399.408 163.248 375.285 162.16 360.437 176.168C347.188 188.667 346.629 204.105 348.352 221.087C352.944 266.35 354.658 312.529 364.744 357.025C365.546 360.564 369.219 364.223 372.844 364.809C432.46 374.442 492.075 384.075 551.691 393.708C646.62 409.047 741.548 424.386 836.477 439.725C857.792 443.169 879.113 447.256 900.523 450.074C918.302 452.414 936.644 452.249 954.533 453.181C1049.41 458.124 1144.28 463.068 1239.15 468.011C1256.34 468.907 1273.53 469.802 1290.72 470.698C1298.43 471.1 1307.04 472.669 1314.76 471.951C1325.61 470.94 1336.51 458.474 1344.69 452.183C1363.57 437.663 1382.45 423.144 1401.33 408.624C1405.32 405.553 1409.32 402.482 1413.31 399.41C1424.79 390.582 1413.07 371.061 1401.44 380.001C1388.67 389.827 1375.89 399.652 1363.11 409.477C1346.62 422.155 1327.41 433.889 1312.49 448.4C1309.55 451.266 1308.62 449.398 1312.11 450.046C1322.37 451.953 1312.8 448.822 1313.51 449.166C1311.34 448.112 1306.62 448.807 1304.24 448.683C1290.49 447.966 1276.73 447.25 1262.98 446.533C1168.75 441.623 1074.52 436.714 980.298 431.804C955.145 430.493 929.978 429.339 904.833 427.872C902.489 427.735 909.586 428.601 905.335 427.894C902.618 427.443 899.898 427.015 897.179 426.576C885.65 424.713 874.121 422.85 862.592 420.987C772.138 406.371 681.684 391.755 591.23 377.139C546.279 369.876 501.329 362.612 456.378 355.349C440.427 352.772 424.477 350.194 408.526 347.617C399.995 346.239 390.612 343.464 381.953 343.323C380.809 343.304 379.591 342.941 378.454 342.758C381.154 345.353 383.854 347.947 386.554 350.542C381.508 328.28 379.152 305.507 376.917 282.822C374.552 258.812 370.506 234.054 369.967 209.952C369.652 195.867 377.495 189.09 390.886 187.17C405.723 185.042 420.65 183.398 435.531 181.602C465.309 178.008 495.115 174.652 524.946 171.534C644.277 159.06 763.991 150.45 883.871 145.543C890.396 145.276 894.621 140.206 895.016 133.946C895.696 123.157 893.587 106.724 904.264 100.248C908.702 97.556 912.991 97.885 917.756 97.985C929.647 98.233 941.543 98.8621 953.428 99.3011C1001.96 101.091 1050.5 102.881 1099.04 104.671C1190.06 108.028 1281.08 111.252 1372.09 114.742C1377.1 114.934 1382.17 114.957 1387.1 115.854C1394.02 117.113 1400.61 118.758 1402.01 126.743C1403.01 132.516 1401.04 139.472 1400.42 145.183C1398.6 161.821 1397.56 178.525 1397.12 195.255C1395.42 260.068 1402.02 324.778 1400.06 389.597C1399.61 404.238 1422.35 403.746 1422.8 389.143Z"
        fill="#5C61E6" />
    <path
        d="M1368.58 397.121C1399.34 396.509 1424.51 421.441 1424.05 452.206C1422.41 563.037 1430.95 688.769 1425.03 793.335C1423.29 824.028 1420.27 857.703 1398.47 879.382C1376.38 901.359 1342.12 903.937 1310.98 905.216C1099.51 913.905 888.046 922.594 676.579 931.283C611.554 933.955 546.261 936.619 481.523 929.959C466.852 928.45 451.195 925.995 440.422 915.922C428.332 904.618 425.548 886.793 423.455 870.374C406.704 738.989 389.636 498.667 372.885 367.282L416.562 316.767L1031.64 289.638L1053.76 403.385L1368.58 397.121Z"
        fill="#5C61E6" />
    <path
        d="M1374.75 480.007L1274.93 481.993C1263.18 482.227 1253.46 472.891 1253.23 461.141L1253.11 455.225C1252.88 443.475 1262.21 433.76 1273.96 433.527L1373.78 431.541C1385.53 431.307 1395.25 440.643 1395.48 452.393L1395.6 458.309C1395.83 470.059 1386.5 479.773 1374.75 480.007Z"
        fill="#5C61E6" />
    <path
        d="M922.643 840.805C754.536 850.111 585.653 872.645 419.66 838.709C420.927 849.763 422.192 860.464 423.455 870.373C425.548 886.792 428.331 904.617 440.422 915.922C451.195 925.991 466.852 928.448 481.523 929.958C546.261 936.616 611.554 933.954 676.579 931.281C888.045 922.594 1099.51 913.903 1310.98 905.216C1342.12 903.935 1376.38 901.358 1398.47 879.381C1405.53 872.366 1410.46 864.017 1414.17 854.999C1250.26 851.155 1086.77 831.721 922.643 840.805Z"
        fill="#5C61E6" />
    <path
        d="M1369.44 408.479C1383.25 408.699 1396.07 414.363 1404.44 425.612C1414.17 438.68 1412.6 453.94 1412.51 469.304C1412.3 503.725 1412.91 538.145 1413.64 572.557C1415.09 641.451 1417.41 710.478 1414.37 779.362C1413.14 807.185 1413.55 840.732 1396.45 864.336C1378.05 889.747 1343.74 892.287 1315.02 893.659C1239.99 897.243 1164.9 899.836 1089.84 902.92C937.155 909.194 784.465 916.546 631.731 921.63C594.572 922.867 557.346 923.445 520.198 921.538C502.572 920.633 483.836 920.415 466.623 916.24C448.741 911.903 440.801 901.062 437 883.725C431.928 860.589 430.664 836.066 428.134 812.543C425.326 786.435 422.738 760.304 420.233 734.166C408.506 611.811 399.706 489.02 384.254 367.054C383.197 369.756 382.14 372.458 381.083 375.161C395.642 358.323 410.201 341.484 424.76 324.646C422.102 325.809 419.444 326.973 416.786 328.136C501.309 324.408 585.832 320.68 670.354 316.952C773.855 312.387 877.356 307.822 980.856 303.257C1002.65 302.296 1022.69 307.504 1028.43 332.479C1034.07 356.972 1038.05 381.951 1042.85 406.624C1043.79 411.456 1049.34 414.846 1053.98 414.754C1145.94 412.925 1237.89 411.095 1329.85 409.266C1343.05 409.004 1356.25 408.742 1369.44 408.479C1384.08 408.188 1383.65 385.445 1368.99 385.737C1277.04 387.566 1185.08 389.396 1093.13 391.225C1079.93 391.488 1066.73 391.75 1053.53 392.013C1057.24 394.723 1060.95 397.433 1064.66 400.143C1059.64 374.325 1056.53 347.268 1049.3 321.977C1040.77 292.115 1013.2 279.07 984.294 280.345C934.718 282.532 885.141 284.718 835.564 286.905C701.927 292.799 568.289 298.694 434.652 304.588C422.733 305.114 412.96 303.567 404.587 313.251C393.561 326.004 382.535 338.756 371.508 351.509C368.601 354.871 364.052 358.856 362.405 363.108C359.067 371.726 364.006 387.708 365.051 396.763C378.33 511.889 387.14 627.502 398.284 742.844C400.895 769.866 403.602 796.881 406.576 823.866C409.252 848.154 409.824 874.944 417.284 898.308C427.01 928.769 452.204 938.235 481.749 941.331C520.57 945.399 559.702 945.959 598.699 945.262C756.898 942.431 915.215 932.859 1073.31 926.363C1152.6 923.105 1231.92 920.074 1311.2 916.588C1339.48 915.345 1370.55 913.47 1394.73 897.041C1418.8 880.688 1429.51 853.758 1433.44 825.861C1442.74 759.872 1438.86 690.958 1437.51 624.556C1436.76 587.97 1435.81 551.386 1435.4 514.794C1435.21 497.805 1435.14 480.815 1435.29 463.826C1435.41 449.576 1435.45 436.526 1429.3 423.352C1418.23 399.621 1394.75 386.147 1368.99 385.737C1354.35 385.502 1354.82 408.246 1369.44 408.479Z"
        fill="#5C61E6" />
    <path
        d="M447.784 608.981C449.793 642.671 453.376 676.239 458.523 709.594C459.844 718.152 465.68 726.513 475.47 725.88C483.475 725.362 493.176 718.137 491.756 708.933C486.608 675.578 483.026 642.01 481.017 608.32C480.5 599.653 473.282 591.438 464.07 592.034C455.37 592.598 447.23 599.686 447.784 608.981Z"
        fill="white" />
    <path
        d="M463.134 764.741C463.151 765.58 463.167 766.418 463.184 767.257C463.143 769.546 463.663 771.671 464.742 773.63C465.453 775.677 466.634 777.436 468.284 778.909C469.821 780.499 471.627 781.609 473.7 782.238C475.701 783.239 477.844 783.673 480.13 783.542C481.599 783.315 483.067 783.088 484.535 782.861C487.334 782.015 489.75 780.542 491.782 778.442C492.626 777.304 493.47 776.166 494.313 775.027C495.765 772.406 496.465 769.595 496.415 766.595C496.398 765.756 496.382 764.918 496.365 764.079C496.406 761.789 495.886 759.665 494.807 757.706C494.096 755.659 492.915 753.9 491.265 752.427C489.728 750.837 487.922 749.727 485.849 749.098C483.848 748.097 481.705 747.662 479.419 747.794C477.95 748.021 476.482 748.248 475.014 748.475C472.215 749.32 469.799 750.793 467.767 752.894C466.923 754.032 466.079 755.17 465.236 756.309C463.784 758.931 463.084 761.742 463.134 764.741Z"
        fill="white" />
    <g opacity="0.57">
        <path
            d="M1252.01 153.886C1303.36 261.951 1277.38 408.155 1144.44 468.994C976.541 545.833 804.411 440.069 784.908 264.157C769.833 128.183 882.189 29.562 1009.36 13.802C1122.07 -0.161019 1210.4 66.312 1252.01 153.886Z"
            fill="white" />
    </g>
    <path
        d="M806.011 349.356C793.903 358.209 783.081 368.817 773.989 380.746C771.019 384.642 768.151 388.878 767.456 393.728C766.251 402.137 771.757 409.906 777.164 416.457C787.286 428.721 798.129 440.389 809.619 451.382C815.051 456.579 821.613 461.976 829.093 461.224C834.061 460.725 838.316 457.557 842.114 454.317C852.589 445.379 860.987 443.336 868.554 431.832"
        fill="white" />
    <path
        d="M779.684 374.268C768.718 344.679 726.066 378.542 713.043 389.075C684.564 412.109 648.521 434.16 649.616 472.983C650.788 514.527 688.568 561.199 731.993 562.322C773.087 563.384 852.327 496.515 840.996 468.405"
        fill="white" />
    <path d="M972.195 167.43C951.473 173.237 933.887 189.27 926.194 209.368Z" fill="white" />
    <path
        d="M1252.01 153.887C1210.4 66.312 1122.07 -0.160022 1009.36 13.803C882.189 29.562 769.834 128.182 784.909 264.157C804.412 440.07 976.542 545.833 1144.44 468.995C1277.38 408.156 1303.36 261.951 1252.01 153.887ZM1053.93 400.688C986.047 414.586 918.016 375.92 884.872 317.421C868.808 289.064 860.328 253.52 865.247 221.035C869.802 190.957 884.647 163.829 905.353 141.839C946.781 97.843 1012.64 73.789 1071.28 94.903C1072.41 95.311 1073.41 95.82 1074.35 96.364C1145.15 114.488 1194.92 182.559 1193.1 256.326C1191.21 332.562 1124.21 386.299 1053.93 400.688Z"
        fill="#C1B6BA" />
    <path
        d="M1258.74 169.549C1263.08 186.331 1265.47 203.625 1264.71 221.701C1262.23 280.203 1239.72 354.382 1200.44 396.225C1156.89 442.626 1098.71 469.546 1035.09 472.722C978.319 475.555 912.972 447.405 860.961 424.49C930.865 493.196 1038.47 517.49 1144.44 468.993C1271.07 411.045 1300.6 275.667 1258.74 169.549Z"
        fill="#AA9BA1" />
    <path
        d="M1157.46 362.537C1205.02 314.245 1212.59 244.853 1187.96 188.068C1174.05 155.999 1149.87 127.95 1116.83 109.994C1099.83 100.755 1081.53 95.069 1062.87 92.294C1065.68 93.096 1068.49 93.9 1071.28 94.903C1072.41 95.311 1073.41 95.82 1074.35 96.364C1145.15 114.488 1194.92 182.559 1193.1 256.326C1191.21 332.562 1124.21 386.298 1053.93 400.688C1007.76 410.142 961.543 395.238 926.258 366.352C951.145 388.219 981.847 403.431 1014.56 408.613C1065.9 416.746 1120.99 399.578 1157.46 362.537Z"
        fill="#C1B6BA" />
    <path
        d="M806.011 349.356C793.903 358.209 783.081 368.817 773.989 380.746C771.019 384.642 768.151 388.878 767.456 393.728C766.251 402.137 771.757 409.906 777.164 416.457C787.286 428.721 798.129 440.389 809.619 451.382C815.051 456.579 821.613 461.976 829.093 461.224C834.061 460.725 838.316 457.557 842.114 454.317C852.589 445.379 860.987 443.336 868.554 431.832"
        fill="white" />
    <path
        d="M731.994 562.322C760.589 563.06 790.497 540.659 810.514 522.47C820.58 513.323 831.53 502.549 837.441 490.072C848.795 466.106 832.251 470.835 817.213 460.818C813.961 458.652 811.446 455.569 808.983 452.535C800.512 442.096 792.04 431.658 783.569 421.219C777.724 414.017 771.684 406.406 769.971 397.29C767.512 384.201 783.255 377.296 775.335 367.024C770.509 360.764 761.051 362.318 754.557 363.855C739.206 367.488 725.039 379.372 713.037 389.078C684.559 412.11 648.52 434.162 649.615 472.982C650.788 514.527 688.568 561.2 731.994 562.322Z"
        fill="#8FE4DB" />
    <path
        d="M694.657 416.317C717.577 396.39 742.893 379.711 768.058 362.828C763.605 361.989 758.53 362.915 754.558 363.855C739.208 367.488 725.038 379.373 713.039 389.079C685.991 410.954 652.189 431.975 649.793 467.286C661.088 447.616 678.212 430.615 694.657 416.317Z"
        fill="#67C9BD" />
    <path
        d="M810.514 522.47C820.58 513.323 831.53 502.549 837.442 490.072C847.163 469.551 836.423 470.049 823.695 464.332C801.737 487.393 778.855 509.983 751.807 527.038C734.683 537.837 716.524 546.015 697.523 551.558C708.127 557.951 719.801 562.008 731.994 562.322C760.589 563.061 790.498 540.658 810.514 522.47Z"
        fill="#67C9BD" />
    <path d="M972.195 167.43C951.473 173.237 933.887 189.27 926.194 209.368Z" fill="#C1B6BA" />
    <path
        d="M1242.31 159.821C1279.45 239.38 1272.19 339.556 1212.2 406.148C1146.97 478.564 1032.82 502.794 943.191 465.697C854.866 429.139 796.74 338.635 794.956 243.62C793.08 143.719 868.53 65.198 959.856 36.235C1014.89 18.783 1075.08 17.935 1128.05 42.77C1179.15 66.73 1217.94 109.45 1242.31 159.821C1248.68 172.983 1268.06 161.051 1261.72 147.952C1238.06 99.041 1200.67 56.499 1152.93 29.961C1103.22 2.33498 1046.38 -4.68102 990.783 5.21098C889.006 23.32 792.118 97.837 775.115 204.157C758.508 308.001 813.302 418.607 903.483 471.29C996.404 525.574 1119.97 513.515 1203.16 445.935C1291.83 373.896 1308.63 248.445 1261.72 147.952C1255.54 134.714 1236.17 146.662 1242.31 159.821Z"
        fill="#841918" />
    <path
        d="M1177.05 191.31C1202.1 251.073 1190.26 321.055 1139.49 363.74C1087.65 407.323 1012.19 409.618 955.621 374.252C900.5 339.791 864.679 270.448 883.169 205.691C899.34 149.056 957.982 110.692 1014.12 103.105C1083.91 93.673 1149.39 129.699 1178.25 194.004C1184.22 207.317 1203.59 195.351 1197.66 182.135C1168.3 116.709 1102.04 76.462 1030.59 78.971C965.364 81.261 897.649 118.396 869.168 178.813C836.489 248.135 866.236 332.227 923.365 378.901C981.856 426.688 1063.88 435.954 1130.02 397.892C1204.32 355.136 1231.49 262.699 1198.86 184.83C1193.27 171.484 1171.38 177.783 1177.05 191.31Z"
        fill="#841918" />
    <path
        d="M800.076 339.651C791.433 346.055 783.236 353.05 775.885 360.915C769.367 367.888 762.169 375.784 758.419 384.657C749.177 406.524 769.44 425.613 782.889 440.309C789.714 447.768 796.713 455.299 804.325 461.972C812.539 469.174 822.914 474.837 834.164 471.822C843.415 469.343 850.139 461.978 857.877 456.776C866.059 451.275 872.863 445.555 878.487 437.376C881.969 432.311 879.107 424.697 874.098 421.899C868.31 418.666 862.111 421.211 858.621 426.288C855.322 431.086 850.756 434.175 846.008 437.367C843.155 439.285 840.359 441.248 837.662 443.38C835.195 445.33 832.448 448.34 829.449 449.485C824.433 451.399 819.19 444.816 816.006 441.743C810.036 435.982 804.253 430.026 798.652 423.907C793.424 418.196 787.999 412.423 783.447 406.147C779.626 400.878 777.137 396.728 780.734 390.829C788.267 378.475 800.427 367.594 811.947 359.059C816.876 355.407 819.125 348.989 815.717 343.42C812.726 338.536 805.037 335.976 800.076 339.651Z"
        fill="#841918" />
    <path
        d="M790.589 371.027C774.516 332.359 731.526 359.968 709.679 377.307C679.152 401.535 638.941 426.858 638.229 470.465C637.567 511.042 666.98 552.614 704.157 567.684C738.422 581.574 771.529 566.361 799.544 545.917C815.052 534.6 829.566 521.545 840.83 505.917C848.961 494.635 856.987 479.367 851.901 465.164C846.992 451.453 825.137 457.81 830.091 471.646C831.055 474.339 831.145 474.755 829.952 478.748C828.55 483.437 825.868 487.774 823.111 491.796C815.821 502.429 806.098 511.686 796.22 519.887C778.797 534.351 753.214 552.764 729.219 550.833C697.107 548.249 671.21 517.685 663.323 488.242C653.882 452.997 678.863 430.173 704.314 410.297C711.364 404.792 761.683 360.44 768.778 377.509C774.334 390.874 796.219 384.572 790.589 371.027Z"
        fill="#841918" />
    <path
        d="M968.954 156.525C956.663 160.04 945.53 166.57 936.109 175.159C926.61 183.819 919.799 194.657 915.17 206.562C914.176 209.119 915.128 213.076 916.491 215.301C917.918 217.632 920.668 219.828 923.391 220.392C926.315 220.997 929.58 220.789 932.13 219.071C934.75 217.307 936.085 215.092 937.221 212.171C935.885 215.605 937.662 211.228 938.031 210.444C938.522 209.399 939.041 208.365 939.586 207.347C940.785 205.107 942.109 202.932 943.549 200.838C943.942 200.267 944.364 199.715 944.752 199.142C942.928 201.836 944.274 199.813 944.702 199.273C945.421 198.368 946.162 197.48 946.925 196.611C948.679 194.611 950.546 192.711 952.511 190.919C953.449 190.064 954.474 189.291 955.398 188.423C954.675 189.102 953.666 189.788 955.037 188.741C955.588 188.32 956.146 187.907 956.709 187.502C958.774 186.018 960.918 184.646 963.132 183.394C964.238 182.768 965.361 182.173 966.5 181.608C967.077 181.322 967.893 181.113 968.377 180.714C967.705 181.269 966.188 181.659 967.907 180.945C970.365 179.924 972.879 179.064 975.437 178.333C981.157 176.697 985.094 169.953 983.101 164.187C981.069 158.315 975.084 154.772 968.954 156.525Z"
        fill="white" />
    <path
        d="M914.173 263.413C928.807 263.122 928.378 240.379 913.721 240.671C899.087 240.962 899.515 263.705 914.173 263.413Z"
        fill="white" />
</svg>
    
