<?xml version="1.0" encoding="UTF-8"?>
<!DOCTYPE svg PUBLIC "-//W3C//DTD SVG 1.1//EN" "http://www.w3.org/Graphics/SVG/1.1/DTD/svg11.dtd">
<svg width="512" height="512" viewBox="0 0 512 512" fill="none" xmlns="http://www.w3.org/2000/svg">
<rect width="512" height="512" rx="80" fill="#FFF3E4"/>
<g filter="url(#filter0_d_1_34)">
<path fill-rule="evenodd" clip-rule="evenodd" d="M188.93 54C192.875 54 196.82 54 200.766 54C208.096 56.7326 212.436 61.9931 213.785 69.7812C214.18 131.854 214.311 193.927 214.18 256C201.292 256 188.403 256 175.516 256C175.384 194.19 175.516 132.38 175.91 70.5703C177.246 62.6169 181.586 57.0934 188.93 54Z" fill="#FBE9CA"/>
<path fill-rule="evenodd" clip-rule="evenodd" d="M274.938 256C262.312 256 249.688 256 237.062 256C236.931 216.02 237.062 176.041 237.457 136.062C241.925 124.502 250.211 120.162 262.312 123.043C268.547 125.333 272.623 129.672 274.543 136.062C274.938 176.041 275.069 216.02 274.938 256Z" fill="#EE9B31"/>
<path fill-rule="evenodd" clip-rule="evenodd" d="M397.242 256C384.617 256 371.992 256 359.367 256C359.235 216.02 359.367 176.041 359.762 136.062C364.098 124.359 372.383 120.019 384.617 123.043C390.945 125.687 395.023 130.29 396.848 136.852C397.242 176.567 397.374 216.283 397.242 256Z" fill="#EE9B31"/>
<path fill-rule="evenodd" clip-rule="evenodd" d="M152.633 256C140.008 256 127.383 256 114.758 256C114.626 227.592 114.758 199.186 115.152 170.781C119.104 159.22 127.126 154.617 139.219 156.973C145.663 159.208 150.003 163.548 152.238 169.992C152.633 198.66 152.765 227.329 152.633 256Z" fill="#EE9B31"/>
<path fill-rule="evenodd" clip-rule="evenodd" d="M336.484 256C323.597 256 310.708 256 297.82 256C297.468 238.342 297.863 220.72 299.004 203.133C305.858 190.415 315.721 187.391 328.594 194.059C331.743 196.417 333.978 199.442 335.301 203.133C336.442 220.72 336.836 238.342 336.484 256Z" fill="#FBE9CA"/>
<path fill-rule="evenodd" clip-rule="evenodd" d="M91.875 256C79.25 256 66.625 256 54 256C54 249.95 54 243.901 54 237.852C60.6874 224.883 70.6821 221.595 83.9844 227.988C87.1332 230.347 89.3689 233.371 90.6914 237.062C91.7671 243.319 92.1617 249.631 91.875 256Z" fill="#F6D291"/>
<path fill-rule="evenodd" clip-rule="evenodd" d="M458 237.852C458 243.901 458 249.95 458 256C445.375 256 432.75 256 420.125 256C419.839 249.631 420.233 243.319 421.309 237.062C426.954 225.76 435.766 222.209 447.742 226.41C452.532 229.037 455.952 232.85 458 237.852Z" fill="#F6D291"/>
<path fill-rule="evenodd" clip-rule="evenodd" d="M54 256C66.625 256 79.25 256 91.875 256C92.1617 262.369 91.7671 268.681 90.6914 274.938C84.9832 286.048 76.172 289.599 64.2578 285.59C59.468 282.963 56.0487 279.15 54 274.148C54 268.099 54 262.05 54 256Z" fill="#F1B458"/>
<path fill-rule="evenodd" clip-rule="evenodd" d="M114.758 256C127.383 256 140.008 256 152.633 256C152.765 284.671 152.633 313.34 152.238 342.008C147.932 353.04 139.91 357.38 128.172 355.027C121.41 352.736 117.07 348.133 115.152 341.219C114.758 312.814 114.626 284.408 114.758 256Z" fill="#E87F23"/>
<path fill-rule="evenodd" clip-rule="evenodd" d="M175.516 256C188.403 256 201.292 256 214.18 256C214.311 318.073 214.18 380.146 213.785 442.219C212.436 450.007 208.096 455.267 200.766 458C196.82 458 192.875 458 188.93 458C181.586 454.907 177.246 449.383 175.91 441.43C175.516 379.62 175.384 317.81 175.516 256Z" fill="#F1B458"/>
<path fill-rule="evenodd" clip-rule="evenodd" d="M237.062 256C249.688 256 262.312 256 274.938 256C275.069 295.98 274.938 335.959 274.543 375.938C268.369 389.607 258.506 393.158 244.953 386.59C241.23 383.916 238.731 380.365 237.457 375.938C237.062 335.959 236.931 295.98 237.062 256Z" fill="#E87F23"/>
<path fill-rule="evenodd" clip-rule="evenodd" d="M297.82 256C310.708 256 323.597 256 336.484 256C336.836 273.658 336.442 291.28 335.301 308.867C328.416 321.596 318.553 324.62 305.711 317.941C302.562 315.583 300.326 312.558 299.004 308.867C297.863 291.28 297.468 273.658 297.82 256Z" fill="#F1B458"/>
<path fill-rule="evenodd" clip-rule="evenodd" d="M359.367 256C371.992 256 384.617 256 397.242 256C397.374 295.717 397.242 335.433 396.848 375.148C391.931 388.061 382.857 392.401 369.625 388.168C364.566 385.559 361.278 381.483 359.762 375.938C359.367 335.959 359.235 295.98 359.367 256Z" fill="#E87F23"/>
<path fill-rule="evenodd" clip-rule="evenodd" d="M420.125 256C432.75 256 445.375 256 458 256C458 262.05 458 268.099 458 274.148C451.313 287.117 441.318 290.405 428.016 284.012C424.866 281.653 422.631 278.629 421.309 274.938C420.233 268.681 419.839 262.369 420.125 256Z" fill="#F1B458"/>
</g>
<defs>
<filter id="filter0_d_1_34" x="42" y="46" width="436" height="436" filterUnits="userSpaceOnUse" color-interpolation-filters="sRGB">
<feFlood flood-opacity="0" result="BackgroundImageFix"/>
<feColorMatrix in="SourceAlpha" type="matrix" values="0 0 0 0 0 0 0 0 0 0 0 0 0 0 0 0 0 0 127 0" result="hardAlpha"/>
<feOffset dx="4" dy="8"/>
<feGaussianBlur stdDeviation="8"/>
<feComposite in2="hardAlpha" operator="out"/>
<feColorMatrix type="matrix" values="0 0 0 0 0.200342 0 0 0 0 0.143578 0 0 0 0 0 0 0 0 0.25 0"/>
<feBlend mode="normal" in2="BackgroundImageFix" result="effect1_dropShadow_1_34"/>
<feBlend mode="normal" in="SourceGraphic" in2="effect1_dropShadow_1_34" result="shape"/>
</filter>
</defs>
</svg>
